<?xml version="1.0" encoding="utf-8"?>
<!-- Generator: Adobe Illustrator 16.0.0, SVG Export Plug-In . SVG Version: 6.00 Build 0)  -->
<!DOCTYPE svg PUBLIC "-//W3C//DTD SVG 1.1//EN" "http://www.w3.org/Graphics/SVG/1.1/DTD/svg11.dtd">
<svg version="1.1" id="Layer_1" xmlns="http://www.w3.org/2000/svg" xmlns:xlink="http://www.w3.org/1999/xlink" x="0px" y="0px"
	 width="302.639px" height="141.333px" viewBox="0 0 302.639 141.333" enable-background="new 0 0 302.639 141.333"
	 xml:space="preserve">
<g>
	<rect x="48.32" y="30.206" width="63" height="9"/>
	<polygon points="39.319,39.207 30.319,39.207 30.319,30.207 48.32,30.206 	"/>
	<rect x="66.319" y="88.708" width="9" height="18"/>
	<rect x="203.638" y="52.667" width="9" height="18"/>
	<rect x="239.638" y="70.708" width="9" height="18"/>
	<rect x="167.069" y="48.207" width="9" height="44.98"/>
	<rect x="257.638" y="52.646" width="9" height="36.042"/>
	<rect x="66.32" y="50.167" width="9" height="23.833"/>
	<rect x="30.319" y="48.207" width="45.001" height="9"/>
	<rect x="203.638" y="66.208" width="45.001" height="9"/>
	<rect x="257.638" y="66.187" width="45.001" height="9"/>
	<rect x="257.638" y="48.146" width="45.001" height="9"/>
	<rect x="257.638" y="84.187" width="45.001" height="9"/>
	<rect x="203.638" y="84.208" width="45.001" height="9"/>
	<rect x="203.638" y="48.208" width="45.001" height="9"/>
	<rect x="149.068" y="48.208" width="45.001" height="9"/>
	<polygon points="111.32,57.207 75.32,57.207 84.32,48.207 111.32,48.207 	"/>
	<rect x="30.32" y="66.206" width="81" height="9"/>
	<rect x="137" y="66.207" width="165.638" height="9"/>
	<rect x="30.319" y="84.208" width="81" height="9"/>
	<rect x="30.32" y="102.208" width="81" height="9"/>
	<rect x="30.321" y="88.708" width="9" height="18"/>
	<rect x="30.319" y="48.207" width="9" height="27"/>
	<circle fill="none" stroke="#000000" stroke-width="9" stroke-miterlimit="10" cx="70.82" cy="70.706" r="66.18"/>
</g>
</svg>
